<svg width="231" height="36" viewBox="0 0 231 36" fill="none" xmlns="http://www.w3.org/2000/svg">
<g clip-path="url(#clip0_1_237)">
<path d="M57.3109 34.2139C55.2474 33.316 53.3705 32.0385 51.7777 30.4477C50.1849 28.8533 48.9041 26.9749 48.0012 24.9092C47.0857 22.7454 46.6152 20.4191 46.6179 18.0692C46.6152 15.7238 47.0857 13.4021 48.0012 11.2431C48.9024 9.17648 50.1834 7.29773 51.7777 5.70464C53.3632 4.10857 55.2421 2.83443 57.3109 1.95234C59.4662 1.03039 61.7868 0.559205 64.1306 0.567724C66.4745 0.557639 68.7957 1.02889 70.9504 1.95234C73.0167 2.83898 74.8948 4.11257 76.4837 5.70464C78.0711 7.29466 79.339 9.1748 80.2186 11.2431C81.1397 13.4003 81.6104 15.7233 81.6019 18.0692C81.6107 20.4197 81.14 22.7473 80.2186 24.9092C79.3357 26.9757 78.0683 28.8553 76.4837 30.4477C74.8882 32.0353 73.0119 33.3123 70.9504 34.2139C68.7938 35.1314 66.4739 35.6024 64.1306 35.5985C61.7874 35.6012 59.4679 35.1303 57.3109 34.2139Z" fill="#1A1A1A"/>
<path d="M115.922 19.3708C118.395 19.3501 120.761 18.3552 122.507 16.6016C123.413 15.725 124.127 14.669 124.604 13.5009C125.08 12.3328 125.308 11.0781 125.273 9.81695C125.281 7.27057 124.287 4.8235 122.507 3.00466C121.658 2.09762 120.637 1.36848 119.505 0.859793C118.372 0.351104 117.149 0.0730024 115.908 0.0415649H103.334C103.099 0.0415649 103.818 0.678495 103.818 0.913879V35.28C103.818 35.5154 103.099 36.0416 103.334 36.0416H124.222C124.346 36.0416 124.443 35.7785 124.512 35.6677C124.546 35.6013 124.564 35.5277 124.564 35.4531C124.564 35.3784 124.546 35.3049 124.512 35.2385L115.922 19.3708Z" fill="#1A1A1A"/>
<path d="M156.301 34.2139C154.239 33.3135 152.362 32.0363 150.768 30.4477C149.175 28.8534 147.894 26.9749 146.991 24.9093C146.076 22.7455 145.605 20.4191 145.608 18.0693C145.605 15.7239 146.076 13.4021 146.991 11.2431C147.892 9.1765 149.173 7.29776 150.768 5.70466C152.356 4.11154 154.234 2.8378 156.301 1.95236C158.456 1.03042 160.777 0.55923 163.121 0.567749C165.469 0.558901 167.794 1.03006 169.954 1.95236C172.021 2.8378 173.9 4.11154 175.488 5.70466C177.08 7.2909 178.348 9.17199 179.223 11.2431C180.15 13.3982 180.622 15.7226 180.606 18.0693C180.621 20.4204 180.15 22.7493 179.223 24.9093C178.345 26.9786 177.077 28.859 175.488 30.4477C173.893 32.0363 172.016 33.3135 169.954 34.2139C167.792 35.1303 165.468 35.6012 163.121 35.5985C160.778 35.6012 158.458 35.1303 156.301 34.2139Z" fill="#1A1A1A"/>
<path d="M14.2759 35.7507H0V0.761475H14.2344C20.9711 0.761475 25.4115 4.49996 25.4115 9.95534C25.4019 11.5556 24.9308 13.1191 24.0547 14.4578C23.1786 15.7965 21.935 16.8534 20.4731 17.5015C22.2387 18.1089 23.775 19.2451 24.8737 20.756C25.9724 22.2668 26.5802 24.0793 26.615 25.9477C26.615 31.7908 21.7182 35.7507 14.2759 35.7507Z" fill="#1A1A1A"/>
<path d="M8.94995 29.3816H12.851C15.6176 29.3816 17.2085 27.8446 17.2085 25.8092C17.2085 23.7739 15.5347 22.2369 13.0585 22.2369H9.19902V9.51233H13.1276" stroke="#F2F2F2" stroke-width="0.25" stroke-miterlimit="10"/>
<path d="M230.087 10.1077C229.449 8.17644 228.374 6.41856 226.947 4.9708C225.525 3.50315 223.789 2.37656 221.87 1.67541C220.392 1.12105 218.828 0.835053 217.25 0.830811C215.654 0.835235 214.071 1.12113 212.574 1.67541C210.643 2.37573 208.893 3.502 207.456 4.9708C206.028 6.41856 204.954 8.17644 204.316 10.1077C202.933 14.1231 203.486 18.4985 203.486 22.6662V34.6154C203.486 34.837 203.486 35.4323 203.679 35.5708C203.873 35.7092 203.998 36 204.164 36H230.281C230.447 36 230.613 35.6815 230.751 35.5708C230.889 35.46 230.931 35.0031 230.931 34.7677C230.931 30.7939 230.931 26.7231 230.931 22.7493C230.931 18.7754 231.401 14.1231 230.087 10.1077Z" fill="#1A1A1A"/>
</g>
<defs>
<clipPath id="clip0_1_237">
<rect width="231" height="36" fill="white"/>
</clipPath>
</defs>
</svg>
